<svg width="426" height="426" viewBox="0 0 426 426" fill="none" xmlns="http://www.w3.org/2000/svg">
<path d="M219.2 208.9H217.2V210.1H219.2V208.9Z" fill="white" stroke="#727176" stroke-width="0.3" stroke-miterlimit="10"/>
<path d="M219.2 210.1H216.7V211.3H219.2V210.1Z" fill="white" stroke="#727176" stroke-width="0.3" stroke-miterlimit="10"/>
<path d="M219.2 211.3H216.7V212.5H219.2V211.3Z" fill="white" stroke="#727176" stroke-width="0.3" stroke-miterlimit="10"/>
<path d="M219.2 212.4H217.2V213.6H219.2V212.4Z" fill="white" stroke="#727176" stroke-width="0.3" stroke-miterlimit="10"/>
<path d="M219.2 213.6H217.2V214.8H219.2V213.6Z" fill="white" stroke="#727176" stroke-width="0.3" stroke-miterlimit="10"/>
<path d="M219.1 214.8H216.4V216H219.1V214.8Z" fill="white" stroke="#727176" stroke-width="0.3" stroke-miterlimit="10"/>
<path d="M219.1 216H216.4V217.2H219.1V216Z" fill="white" stroke="#727176" stroke-width="0.3" stroke-miterlimit="10"/>
<path d="M219.1 217.2H216.4V218.4H219.1V217.2Z" fill="white" stroke="#727176" stroke-width="0.3" stroke-miterlimit="10"/>
<path d="M219.2 218.4H217.2V219.6H219.2V218.4Z" fill="white" stroke="#727176" stroke-width="0.3" stroke-miterlimit="10"/>
<ellipse cx="212.5" cy="248" rx="160.5" ry="162" fill="white"/>
<path d="M55.6006 276.3C61.1006 307.8 75.7006 336.1 96.4006 358.4V276.3H55.6006Z" fill="#1B225F"/>
<path d="M126.301 276.3V383.7C138.401 391.6 151.601 397.9 165.601 402.3V276.3H126.301Z" fill="#1B225F"/>
<path d="M202.5 276.3V409.3C206.1 409.5 209.7 409.7 213.4 409.7C223.1 409.7 232.6 408.8 241.8 407.2V276.4H202.5V276.3Z" fill="#1B225F"/>
<path d="M274.9 276.3V397.3C289.1 391.3 302.3 383.3 314.2 373.7V276.3H274.9Z" fill="#1B225F"/>
<path d="M346.601 276.3V337.8C358.701 319.6 367.301 298.7 371.201 276.3H346.601Z" fill="#1B225F"/>
<path d="M89.4006 173.3C89.4006 173.3 100.001 170.8 102.701 171.9C105.301 173 111.301 173.6 109.401 176C107.501 178.4 100.901 182.2 101.401 184.5C101.801 186.9 104.001 187.3 107.201 187.3C110.401 187.3 114.201 189.4 110.501 192.5C106.901 195.7 105.101 199.6 104.701 202C104.301 204.4 102.201 209.4 101.401 210.4C100.501 211.3 99.2006 214.5 100.701 216.2C102.201 217.9 104.501 215.9 103.501 220.3C102.501 224.7 99.9006 227.7 98.8006 230.4C97.8006 233.1 98.5006 242.4 97.5006 246.1C96.5006 249.7 89.9006 259.4 89.8006 260.2C89.7006 261 86.3006 265.4 86.3006 269.4C86.3006 273.4 87.0006 281 84.3006 281C81.6006 281 74.5006 284 67.0006 272.6C59.4006 261.2 55.2006 260.4 56.2006 253.5C57.2006 246.5 64.5006 240.8 64.5006 236.2C64.5006 231.6 61.1006 221 64.1006 217.7C67.0006 214.4 69.5006 213.3 68.8006 209.6C68.1006 206 66.2006 201.7 68.2006 200.3C70.2006 198.9 76.8006 197.1 78.7006 191.8C80.6006 186.4 79.1006 179.8 80.7006 179C82.3006 178.2 89.6006 173.3 89.6006 173.3H89.4006Z" fill="#385AA0"/>
<path d="M213.4 413.2C203.3 413.2 193.2 412.3 183.3 410.4H182.7C181.4 410 180.1 409.8 178.9 409.5L177.9 409.3C176.7 409 175.6 408.8 174.4 408.5L173.4 408.2C172.2 407.9 170.9 407.6 169.7 407.2L169 407C153.3 402.5 138.4 395.7 124.7 386.8H124.6C123.3 385.8 122 385 120.7 384.1L120.3 383.8C119 382.9 117.8 382 116.6 381.1H116.4C113.8 379 111.2 376.9 108.6 374.8C107.3 373.7 106.1 372.7 104.9 371.6L104.7 371.4C101.1 368.2 97.5004 364.7 94.2004 361.1L93.8004 360.7V360.5C72.2004 337.1 57.9004 308.2 52.4004 276.9C52.2004 275.6 52.0004 274.4 51.8004 273.1L51.6004 271.7C51.5004 270.9 51.4004 270.1 51.3004 269.2C51.3004 268.7 51.2004 268.3 51.1004 267.8V267.6C51.0004 266.8 50.9004 266.1 50.8004 265.3C50.8004 264.7 50.7004 264.2 50.6004 263.6C50.6004 262.8 50.5004 262.1 50.4004 261.3C50.4004 260.7 50.4004 260.2 50.3004 259.6C50.3004 258.8 50.2004 258 50.1004 257.2V257C50.1004 256.5 50.1004 256.1 50.1004 255.6C50.1004 254.7 50.1004 253.8 50.0004 252.9V251.6C50.0004 250.3 49.9004 248.9 49.9004 247.6C49.9004 156.3 123.3 82.0999 213.6 82.0999C303.9 82.0999 377.3 156.3 377.3 247.6C377.3 338.9 377.3 250.3 377.3 251.6V252.9C377.3 253.8 377.2 254.7 377.1 255.6V257.2C377 258 376.9 258.8 376.9 259.6C376.9 260.2 376.9 260.7 376.8 261.3C376.8 262.1 376.7 262.8 376.6 263.6C376.6 264.2 376.5 264.7 376.4 265.3C376.4 266.1 376.2 266.8 376.1 267.6L375.9 269.2C375.8 270 375.7 270.8 375.6 271.7L375.4 273.1C375.2 274.4 375 275.6 374.8 276.9C370.5 301.2 360.6 324.7 346.2 344.7L345.8 345.2C343.5 348.4 341.1 351.5 338.6 354.5L338.3 354.9C335.7 357.9 333 360.9 330.2 363.8L329.7 364.3C325.6 368.5 321.1 372.6 316.6 376.3L316.3 376.5C304.1 386.4 290.7 394.5 276.3 400.5C275 401.1 273.7 401.6 272.4 402.1H272C270.8 402.7 269.6 403.1 268.4 403.6L267.7 403.8C266.6 404.2 265.5 404.6 264.4 404.9L263.5 405.2C262.5 405.5 261.4 405.9 260.4 406.2L259.3 406.5C258.3 406.8 257.3 407.1 256.3 407.3L255 407.6C254 407.9 253.1 408.1 252.1 408.3L250.8 408.6C249.8 408.8 248.8 409.1 247.8 409.3L246.6 409.6C235.8 411.9 224.6 413 213.5 413L213.4 413.2ZM128.1 380.6C141.3 389.3 155.7 395.8 170.8 400.1L171.5 400.3C172.7 400.6 173.8 400.9 175 401.2L176 401.4C177.1 401.7 178.2 401.9 179.4 402.2L180.3 402.4C181.5 402.7 182.7 402.9 184 403.2H184.6C204.7 407.1 225.6 406.9 245.5 402.7L246.6 402.5C247.6 402.3 248.5 402.1 249.5 401.8L250.8 401.5C251.7 401.3 252.7 401 253.6 400.8L254.8 400.5C255.8 400.2 256.7 400 257.6 399.7L258.7 399.4C259.7 399.1 260.7 398.8 261.7 398.5L262.6 398.2C263.7 397.9 264.7 397.5 265.8 397.1L266.5 396.9C267.6 396.5 268.8 396.1 269.9 395.6H270.3C271.6 395 272.8 394.5 274 393.9C287.8 388.1 300.7 380.4 312.3 370.9L312.6 370.7C317.2 367 321.5 363 325.6 358.8L326 358.4C328.6 355.7 331.1 352.9 333.5 350.1L333.8 349.8C336.2 346.9 338.6 343.9 340.7 340.9L341.1 340.4C354.8 321.2 364.3 298.9 368.4 275.7C368.6 274.5 368.8 273.3 369 272.1L369.2 270.7C369.3 269.9 369.4 269.1 369.5 268.4L369.7 266.8C369.7 266.1 369.9 265.3 369.9 264.6C369.9 264.1 370 263.5 370.1 263C370.1 262.3 370.2 261.5 370.3 260.8C370.3 260.3 370.3 259.7 370.4 259.2C370.4 258.4 370.5 257.7 370.5 256.9V255.4C370.6 254.6 370.7 253.7 370.7 252.9V251.6C370.7 250.3 370.7 249.1 370.7 247.8C370.7 160.5 300.2 89.4999 213.7 89.4999C127.2 89.4999 56.4004 160.4 56.4004 247.7C56.4004 335 56.4004 250.3 56.4004 251.5V252.8C56.4004 253.7 56.5004 254.5 56.5004 255.3C56.5004 255.7 56.5004 256.2 56.5004 256.6V256.8C56.5004 257.6 56.6004 258.3 56.7004 259.1C56.7004 259.6 56.7004 260.2 56.8004 260.7C56.8004 261.4 56.9004 262.2 57.0004 262.9C57.0004 263.4 57.1004 264 57.2004 264.5C57.2004 265.2 57.4004 266 57.4004 266.7V266.9C57.4004 267.3 57.5004 267.8 57.6004 268.2C57.6004 269 57.8004 269.7 57.9004 270.5L58.1004 271.9C58.3004 273.1 58.5004 274.3 58.7004 275.5C64.0004 305.5 77.8004 333.2 98.5004 355.6L98.7004 355.8C101.9 359.2 105.3 362.6 108.8 365.7L109 365.9C110.2 366.9 111.3 368 112.5 369H112.6C115 371.1 117.5 373.1 120 375L118.3 378.1L120.2 375.1C121.4 376 122.6 376.8 123.8 377.7L124.2 378C125.4 378.8 126.6 379.7 127.8 380.5H127.9L128.1 380.6Z" fill="#211915"/>
<path d="M262.801 23.6999C256.701 19.6999 254.001 15.5999 253.201 14.9999C252.301 14.4999 250.501 11.3999 248.801 13.2999C247.101 15.1999 249.301 18.0999 249.301 18.0999C249.301 18.0999 249.901 18.9999 253.601 25.6999C257.301 32.3999 252.201 38.3999 240.701 41.8999C229.201 45.4999 224.301 40.5999 222.401 38.5999C220.501 36.5999 223.301 31.4999 226.001 30.8999C228.801 30.2999 230.001 25.9999 227.801 24.3999C225.601 22.6999 223.201 24.0999 221.901 26.7999C220.601 29.4999 215.801 28.8999 215.801 28.8999H214.701C214.701 28.7999 213.601 28.8999 213.601 28.8999C213.601 28.8999 208.801 29.4999 207.501 26.7999C206.201 24.0999 203.801 22.6999 201.601 24.3999C199.401 26.0999 200.601 30.2999 203.401 30.8999C206.201 31.4999 208.901 36.5999 207.001 38.5999C205.101 40.5999 200.201 45.4999 188.701 41.8999C177.201 38.2999 169.701 32.2999 173.401 25.6999C177.101 18.9999 177.701 18.0999 177.701 18.0999C177.701 18.0999 179.901 15.2999 178.201 13.2999C176.501 11.3999 174.701 14.4999 173.801 14.9999C172.901 15.4999 170.301 19.5999 164.201 23.6999C158.101 27.6999 69.5006 60.9999 66.1006 171.8C75.3006 142 81.6006 105.1 122.001 110C124.501 92.0999 130.401 75.9999 142.401 72.1999C154.401 68.3999 167.801 78.2999 172.001 86.2999C174.501 77.6999 184.001 67.8999 193.401 67.8999C202.801 67.8999 216.401 77.1999 216.401 83.2999C216.401 77.1999 226.801 67.8999 236.201 67.8999C245.601 67.8999 255.101 77.5999 257.601 86.2999C261.801 78.2999 276.301 70.2999 288.301 74.0999C300.301 77.8999 304.901 95.5999 307.301 113.6C347.801 108.7 351.601 143.5 360.701 173.3C357.201 62.4999 269.101 27.7999 263.001 23.7999L262.801 23.6999Z" fill="#211915"/>
<path d="M189.8 42.5999C189.8 42.5999 189.6 42.5999 189.4 42.8999C189.1 43.0999 188.7 43.3999 188.2 43.7999C187.7 44.1999 187.1 44.6999 186.5 45.2999C186.2 45.5999 185.9 45.9999 185.5 46.2999C185.2 46.6999 184.8 47.0999 184.5 47.4999C183.8 48.2999 183.2 49.2999 182.5 50.2999C182.2 50.7999 181.9 51.3999 181.5 51.8999C181.2 52.4999 180.8 52.9999 180.5 53.5999C180.2 54.1999 179.9 54.7999 179.6 55.3999C179.3 55.9999 179.1 56.6999 178.8 57.3999C178.5 58.0999 178.2 58.6999 178 59.3999L177.3 61.4999C176.8 62.8999 176.4 64.2999 176 65.6999C175.8 66.3999 175.5 67.0999 175.4 67.7999C175.2 68.4999 175.1 69.1999 174.9 69.8999C174.6 71.2999 174.2 72.5999 173.9 73.7999C173.7 75.0999 173.4 76.2999 173.1 77.3999C172.8 78.4999 172.7 79.5999 172.5 80.4999C172.3 81.3999 172.1 82.1999 172 82.8999C171.7 84.1999 171.5 84.9999 171.5 84.9999C171.5 84.9999 171.5 84.1999 171.3 82.8999C171.3 82.1999 171.3 81.3999 171.3 80.3999C171.3 79.4999 171.2 78.3999 171.3 77.1999C171.3 75.9999 171.4 74.7999 171.5 73.3999C171.5 72.0999 171.8 70.6999 172 69.1999C172.2 67.6999 172.4 66.1999 172.9 64.6999C173.3 63.1999 173.7 61.6999 174.2 60.1999L175 57.9999C175.3 57.2999 175.6 56.5999 176 55.8999C176.3 55.1999 176.6 54.4999 177 53.7999C177.4 53.1999 177.8 52.4999 178.2 51.8999C178.6 51.2999 179 50.6999 179.4 50.0999C179.8 49.4999 180.2 48.9999 180.7 48.4999C181.6 47.4999 182.4 46.5999 183.3 45.8999C184.1 45.0999 185 44.5999 185.8 44.0999C186.6 43.5999 187.3 43.2999 187.9 43.0999C188.5 42.8999 189 42.6999 189.3 42.6999C189.6 42.6999 189.8 42.6999 189.8 42.6999V42.5999Z" fill="white"/>
<path d="M240.7 42.6C240.7 42.6 240.9 42.6 241.2 42.6C241.5 42.6 242 42.8 242.6 43C243.2 43.2 243.9 43.6 244.7 44C245.5 44.5 246.4 45 247.2 45.8C248.1 46.5 249 47.4 249.9 48.4C250.3 48.9 250.7 49.5 251.2 50C251.6 50.6 252.1 51.1 252.4 51.8C252.8 52.4 253.2 53.1 253.6 53.7C254 54.4 254.3 55.1 254.6 55.8C254.9 56.5 255.3 57.2 255.6 57.9L256.4 60.1C257 61.6 257.3 63.1 257.7 64.6C258.1 66.1 258.3 67.6 258.6 69.1C258.8 70.5 259.1 71.9 259.1 73.3C259.2 74.6 259.3 75.9 259.3 77.1C259.4 78.3 259.3 79.3 259.3 80.3C259.3 81.2 259.3 82.1 259.2 82.8C259.2 84.2 259 84.9 259 84.9C259 84.9 258.8 84.1 258.5 82.8C258.4 82.1 258.2 81.3 258 80.4C257.8 79.5 257.7 78.4 257.4 77.3C257.1 76.2 256.9 75 256.6 73.7C256.4 72.4 256 71.1 255.7 69.8C255.5 69.1 255.4 68.4 255.2 67.7C255 67 254.8 66.3 254.6 65.6C254.2 64.2 253.8 62.8 253.3 61.4L252.6 59.3C252.4 58.6 252 58 251.8 57.3C251.5 56.7 251.3 56 251 55.3C250.7 54.7 250.4 54.1 250.1 53.5C249.8 52.9 249.5 52.3 249.1 51.8C248.8 51.2 248.5 50.7 248.1 50.2C247.4 49.2 246.8 48.2 246.1 47.4C245.8 47 245.4 46.6 245.1 46.2C244.8 45.8 244.5 45.5 244.2 45.2C243.6 44.6 243 44.1 242.5 43.7C242 43.3 241.6 43 241.3 42.8C241 42.6 240.8 42.5 240.8 42.5L240.7 42.6Z" fill="white"/>
<path d="M205.1 119.6H198.5V131.6H205.1V119.6Z" fill="#211915"/>
<path d="M192.4 122.9H189.4V128.4H192.4V122.9Z" fill="#5B5B5F"/>
<path d="M183.601 122.9H180.601V128.4H183.601V122.9Z" fill="#5B5B5F"/>
<path d="M252.7 122.9H249.7V128.4H252.7V122.9Z" fill="#5B5B5F"/>
<path d="M244 122.9H241V128.4H244V122.9Z" fill="#5B5B5F"/>
<path d="M219.8 119.6H213.2V131.6H219.8V119.6Z" fill="#211915"/>
<path d="M212.4 149.4H205.8V157.5H212.4V149.4Z" fill="#211915"/>
<path d="M226.6 149.4H220V157.5H226.6V149.4Z" fill="#211915"/>
<path d="M228.6 175.8H218V188.8H228.6V175.8Z" fill="#211915"/>
<path d="M227.4 209.1H219.2V219.2H227.4V209.1Z" fill="#211915"/>
<path d="M234.201 119.6H227.601V131.6H234.201V119.6Z" fill="#211915"/>
<path d="M175.8 118.2H257.1V113.1L237.9 108.9L221.6 92.8999H211.4L195.1 108.9L175.8 113.1V118.2Z" fill="#211915"/>
<path d="M193.501 140.6H184.601V142.8H193.501V140.6Z" fill="#CDCDCD"/>
<path d="M193.501 143.1H184.601V145.3H193.501V143.1Z" fill="#CDCDCD"/>
<path d="M196.001 146.8H184.601V149H196.001V146.8Z" fill="#CDCDCD"/>
<path d="M192.101 154.7H184.601V163H192.101V154.7Z" fill="#AEADB3"/>
<path d="M192.201 208.5H184.601V165.3H195.201L192.201 208.5Z" fill="#AEADB3"/>
<path d="M199.001 149.6H184.601V153.6H199.001V149.6Z" fill="#CDCDCD"/>
<path d="M248.4 140.6H239.5V142.8H248.4V140.6Z" fill="#CDCDCD"/>
<path d="M248.4 143.1H239.5V145.3H248.4V143.1Z" fill="#CDCDCD"/>
<path d="M248.4 146.8H237V149H248.4V146.8Z" fill="#CDCDCD"/>
<path d="M248.4 154.7H240.9V163H248.4V154.7Z" fill="#AEADB3"/>
<path d="M240.9 208.5H248.4V165.3H237.8L240.9 208.5Z" fill="#AEADB3"/>
<path d="M248.501 149.6H234.101V153.6H248.501V149.6Z" fill="#CDCDCD"/>
<path d="M184.8 234.7H183.7V141L178.1 136.6V118.8H175.2V112.6L194.8 108.3L211.1 92.2998H216.5V93.4998H211.6L195.3 109.5L176.4 113.7V117.6H179.3V135.9L184.8 140.3V234.7Z" fill="#211915"/>
<path d="M249.3 234.7H248.1V140.3L253.6 135.9V117.6H256.6V113.7L237.6 109.5L221.3 93.4998H216.5V92.2998H221.8L238.2 108.3L257.7 112.6V118.8H254.8V136.6L249.3 141V234.7Z" fill="#211915"/>
<path d="M247.6 138.5H184.4V140.3H247.6V138.5Z" fill="#87868A"/>
<path d="M190.4 137H187.4V142.5H190.4V137Z" fill="#5B5B5F"/>
<path d="M198.301 137H195.301V142.5H198.301V137Z" fill="#5B5B5F"/>
<path d="M206.101 137H203.101V142.5H206.101V137Z" fill="#5B5B5F"/>
<path d="M214 137H211V142.5H214V137Z" fill="#5B5B5F"/>
<path d="M221.9 137H218.9V142.5H221.9V137Z" fill="#5B5B5F"/>
<path d="M229.801 137H226.801V142.5H229.801V137Z" fill="#5B5B5F"/>
<path d="M237.601 137H234.601V142.5H237.601V137Z" fill="#5B5B5F"/>
<path d="M245.5 137H242.5V142.5H245.5V137Z" fill="#5B5B5F"/>
<path d="M361.2 207.9C361.2 207.9 271.4 197.1 260.9 195.9C250.4 194.6 212.5 187.7 212.5 187.7C212.5 187.7 197.2 183.9 194.5 186C191.8 188.1 191.4 189.8 189.4 189.8C187.4 189.8 174.8 189.8 170.4 188.1C165.9 186.4 152.5 184.7 158.2 188.7C163.8 192.7 187.2 194.8 189.1 196.1C191 197.4 197.8 201.5 199.8 200.6C201.7 199.8 201 196.9 209 198.4C217 199.9 251.8 204.3 264.4 206.2C277 208.1 293.5 211.3 297.4 211.3C301.3 211.3 314.9 211.3 319.2 211.9C323.5 212.5 354.4 217 357.3 218.2C360.2 219.5 365.7 221.4 366.2 215.9C366.8 210.4 361.2 207.9 361.2 207.9Z" fill="#E3E141"/>
<path d="M365.701 217.4C365.701 217.4 371.701 219.3 372.501 222.5C373.401 225.7 372.801 235.5 365.501 232.6C358.201 229.8 357.001 227.2 352.401 227.2C347.801 227.2 335.601 228.2 327.801 225.8C319.901 223.4 302.001 224.5 295.001 223.6C288.001 222.6 289.001 221.9 280.001 221.1C271.001 220.3 247.501 215.9 247.501 215.9C247.501 215.9 234.101 215 230.601 213.4C227.101 211.8 219.801 211 217.101 210.7C214.301 210.4 200.101 207.5 194.401 207.3C188.701 207.1 169.601 205.5 164.801 204C159.901 202.5 147.901 201.7 150.601 197.1C153.301 192.6 157.001 193.6 162.101 195.8C167.101 198 173.601 199.3 178.001 200.1C182.501 200.9 187.501 202.3 191.401 202.7C191.401 202.7 198.801 201.4 199.801 200.6C200.801 199.8 202.201 198.3 203.901 198.1C205.601 197.9 205.301 197.8 211.001 198.7C216.701 199.6 225.601 200.9 225.601 200.9L255.001 204.7L284.901 209.7C284.901 209.7 293.601 211.1 306.701 211.5C319.701 211.9 324.101 212.6 331.301 213.6C338.501 214.7 355.601 217.7 355.601 217.7C355.601 217.7 360.101 219.3 360.801 219.5C361.601 219.7 363.601 220 364.601 219.1C365.601 218.2 365.801 217.4 365.801 217.4H365.701Z" fill="#BF0811"/>
<path d="M163.8 203.7C163.8 203.7 148.1 203.2 144.9 201.4C141.8 199.6 132.1 198.5 134 194.6C135.8 190.7 139.3 192.3 142.7 193.1C146.1 193.9 151.7 195.3 151.7 195.3C151.7 195.3 149.6 197.9 150.2 198.6C150.8 199.3 151.9 201.3 154.9 201.8C157.9 202.4 163.8 203.6 163.8 203.6V203.7Z" fill="#E3E141"/>
<path d="M163.6 233.4C163 233.2 152 232 148.4 231.2C144.8 230.4 128.4 230.3 130.4 224.7C132.4 219.1 138.5 223.3 142.5 224C146.5 224.6 157.4 228.3 157.4 228.3L163.6 233.5V233.4Z" fill="#E3E141"/>
<path d="M189.5 226.9C189.5 226.9 176.9 224.4 175.1 224.4C173.3 224.4 158.6 223.8 156.1 222.9C153.6 222.1 145.2 221.8 144.8 224.2C144.4 226.5 145.6 228.4 156.5 231.6C167.4 234.8 170.5 238.6 181.4 237.9C192.3 237.3 208.2 239.6 221.4 242C234.6 244.3 230.7 241.4 239.3 244C247.8 246.5 262.5 254 262.5 254L288.4 259.5L321.8 259.7C321.8 259.7 330 258 335.6 257.8C341.2 257.6 351.2 257 350 253.2C348.8 249.4 339.7 246.9 333.5 245C327.3 243.1 309.6 241 308.8 240.6C308 240.2 277.1 234.7 277.1 234.7C277.1 234.7 229.5 230.1 228.7 230.1C227.9 230.1 189.6 227.2 189.6 227.2L189.5 226.9Z" fill="#BF0811"/>
<path d="M290.201 239.4C289.601 239.4 276.901 239.6 273.401 238.5C269.901 237.4 252.301 233 246.901 232.6C241.501 232.3 225.601 230.1 225.601 230.1L201.401 226.9C201.401 226.9 187.101 228.6 187.101 227.2C187.101 225.8 187.701 216.8 194.401 217.7C201.101 218.7 215.501 220.6 218.401 219.9C221.301 219.3 230.601 213.4 230.901 213.4C231.201 213.4 237.801 215.1 242.201 215.4C242.201 215.4 245.101 218.5 248.701 217.8C252.301 217.2 253.801 216.9 255.401 217.2C257.001 217.5 265.401 218.9 265.401 218.9L277.301 220.7C277.301 220.7 285.001 221.3 287.601 222C290.201 222.7 295.201 223.6 296.001 223.6C296.801 223.6 309.401 224.1 309.401 224.1L318.901 224.4C318.901 224.4 325.001 225 325.601 225.1C326.101 225.1 332.101 226.6 332.801 226.7C332.801 226.7 340.401 227.3 341.901 227.3C343.401 227.3 349.601 227.1 349.601 227.1C349.601 227.1 353.901 227.3 354.201 227.3C354.501 227.3 356.401 227.9 357.301 228.4C358.201 228.9 364.101 231.7 364.101 231.7C364.101 231.7 366.001 234.3 366.501 235.5C367.001 236.7 367.001 239.2 365.201 240.2C363.401 241.2 333.301 238.1 330.801 238.1C328.301 238.1 290.401 239.4 290.401 239.4H290.201Z" fill="#E3E141"/>
<path d="M178.301 225C178.301 226.9 175.401 228.5 171.801 228.5C168.201 228.5 165.301 226.9 165.301 225C165.301 223.1 168.201 221.5 171.801 221.5C175.401 221.5 178.301 223.1 178.301 225Z" fill="#E3E141"/>
<path d="M166.2 246.9C166.2 246.9 156.7 243.6 158.9 239.8C161.1 236 172.7 242.5 178 243.1C183.2 243.7 202.6 244.7 215.9 246.7C229.2 248.8 241.4 248.8 247.8 249.9C254.2 251 278.9 256.9 287.8 257.6C296.7 258.2 323.8 259.7 323.8 259.7C323.8 259.7 340.5 263.7 345 263.5C349.5 263.3 356.9 261.6 358.4 264.1C359.9 266.6 361.5 274 356.8 274C352.1 274 339.9 275.7 339.9 275.7L307.4 276.3C307.4 276.3 239.4 267.2 238.6 265.7C237.8 264.2 166.1 246.8 166.1 246.8L166.2 246.9Z" fill="#FEEE00"/>
<path d="M153.801 252.3C153.801 252.3 150.801 249.8 151.701 247.8C152.601 245.8 156.001 244.6 164.501 246.4C173.101 248.2 195.801 252.1 200.201 252.1C204.601 252.1 213.001 253.7 216.001 254.6C219.001 255.6 227.701 257.9 241.101 259.8C254.501 261.7 283.201 270.1 293.101 270.5C303.001 270.8 318.401 273.1 327.701 273.4C337.001 273.7 347.101 276 351.201 277.7C355.301 279.4 358.201 282.6 357.801 284C357.401 285.5 351.401 289.9 347.101 288.9C342.801 287.9 324.401 287.6 324.401 287.6L298.301 285.7L230.101 274C230.101 274 174.401 265.5 174.101 263.9C173.801 262.3 153.901 252.3 153.901 252.3H153.801Z" fill="#BF0811"/>
<path d="M177.7 272.8C177.7 272.8 162.4 265.8 160.2 264.3C158 262.7 148.6 257.3 147.7 256.4C146.8 255.4 146.8 252.6 148.9 252.6C148.9 252.6 152.7 251.2 165.1 255.9C177.5 260.6 179.1 262.5 185.8 262.5C192.5 262.5 201.5 264.1 208.3 266.5C215 268.9 218.1 269.5 226.5 270.3C235 271.1 234.8 272.7 244.6 274.1C254.4 275.5 263 278 268.4 278.5C273.8 279 287.9 282.9 295.7 283.4C303.4 283.9 321.5 286.3 323.1 286.3C324.7 286.3 343.9 287.6 346.3 293.9C348.6 300.2 342.4 300.1 342.4 300.1H328C328 300.1 305 296.8 304.5 296.6C304.1 296.4 251 291.2 249.5 290.3C248 289.3 182.2 276.4 182.2 276.4L178 272.9L177.7 272.8Z" fill="#FEEE00"/>
<path d="M139.301 277.9C139.301 277.9 134.201 275.5 131.901 271.6C129.701 267.7 129.801 266.2 133.901 267.3C138.101 268.4 143.201 270 146.301 270.2C149.301 270.2 157.301 269.5 161.001 270.4C164.701 271.4 171.201 272.2 174.201 272.4C177.201 272.6 190.901 277 200.201 278.3C209.501 279.6 216.901 282.3 222.601 281.7C228.201 281.1 232.101 281.3 239.701 283C247.301 284.7 261.101 287 266.101 287C271.101 287 286.801 289.9 294.901 291.2C303.101 292.5 321.701 296.6 324.601 296.4C327.501 296.2 339.501 297.2 342.101 298.3C344.701 299.4 348.101 299.4 349.201 299.4C350.301 299.4 355.201 300.2 355.201 302.3C355.201 304.4 352.401 306.2 347.801 306.1C343.101 305.9 335.001 308.8 335.001 308.8L329.101 310.7L302.901 309.4C302.901 309.4 284.401 303.3 282.901 303.3C281.401 303.3 255.301 299.7 255.301 299.7L216.001 296.3C216.001 296.3 186.701 293.8 185.701 292.9C184.701 292.1 153.801 284.5 153.801 284.5L139.301 278.1V277.9Z" fill="#BF0811"/>
<path d="M140.7 291.7C147.4 293 165.6 292.8 167.7 294C169.8 295.3 186.5 296.5 192.6 297.2C192.6 297.2 210.9 299.5 215 299.9C219.1 300.3 244.2 303.7 247.5 303.7C250.8 303.7 272.4 307.7 276.8 308.3C281.3 308.9 307.3 312.9 314.2 312.8C321.1 312.6 332.4 315.8 338.5 315.8C344.6 315.8 353.1 316.7 350.6 312.2C348.1 307.6 344.6 306.4 340.1 306.7C335.6 307 321.3 309.6 304.2 305.6C287.1 301.6 265.1 299.1 260.3 298.5C255.5 297.9 240.2 297.7 235.7 296.6C231.2 295.5 218.6 291.8 215.1 292.3C211.6 292.8 200.1 292 189.4 288.3C178.8 284.7 175.3 284.5 170.5 283.9C165.7 283.3 157 283.1 152.1 281.8C147.2 280.4 138.1 277.5 136.1 277.1C134.1 276.8 129.6 274.5 128.1 273.3C126.6 272 124.6 271.4 123.3 273.7C122 276 125.1 283.2 129.9 286.5C134.7 289.8 137.7 291.2 140.6 291.8L140.7 291.7Z" fill="#FEEE00"/>
<path d="M135.5 246.7C135 248.5 132.6 249.3 130.2 248.4C127.8 247.6 126.3 245.4 126.8 243.6C127.3 241.8 129.7 241.1 132.1 241.9C134.5 242.7 136 244.9 135.5 246.7Z" fill="#E3E141"/>
<path d="M207 261.9C206.7 261.9 206.4 261.6 206.4 261.3V240.6H200.3C200 240.6 199.7 240.3 199.7 240V235.5C199.7 235.1 200 234.9 200.3 234.9H217.8C218.1 234.9 218.4 235.2 218.4 235.5V240C218.4 240.3 218.1 240.6 217.8 240.6H211.7V261.3C211.7 261.7 211.4 261.9 211.1 261.9H206.9H207Z" fill="#211915"/>
<path d="M217.801 235.5V240H211.101V261.3H206.901V240H200.201V235.5H217.701M217.801 234.2H200.301C199.701 234.2 199.101 234.8 199.101 235.5V240C199.101 240.7 199.601 241.3 200.301 241.3H205.801V261.3C205.801 262 206.301 262.6 207.001 262.6H211.201C211.901 262.6 212.401 262 212.401 261.3V241.3H217.901C218.501 241.3 219.101 240.7 219.101 240V235.5C219.101 234.8 218.601 234.2 217.901 234.2H217.801Z" fill="white"/>
<path d="M265.201 261.9C264.901 261.9 264.601 261.6 264.601 261.3V235.5C264.601 235.1 264.901 234.9 265.201 234.9H269.401C269.701 234.9 270.001 235.2 270.001 235.5V261.3C270.001 261.7 269.701 261.9 269.401 261.9H265.201Z" fill="#211915"/>
<path d="M269.3 235.5V261.3H265.1V235.5H269.3ZM269.3 234.2H265.1C264.5 234.2 263.9 234.8 263.9 235.5V261.3C263.9 262 264.4 262.6 265.1 262.6H269.3C269.9 262.6 270.5 262 270.5 261.3V235.5C270.5 234.8 270 234.2 269.3 234.2Z" fill="white"/>
<path d="M271.999 261.9C271.699 261.9 271.399 261.6 271.399 261.3V235.5C271.399 235.1 271.699 234.9 271.999 234.9H276.199C276.499 234.9 276.799 235.2 276.799 235.5V256.2H287.899C288.199 256.2 288.499 256.5 288.499 256.8V261.3C288.499 261.7 288.199 261.9 287.899 261.9H271.999Z" fill="#211915"/>
<path d="M276.2 235.5V256.8H287.9V261.3H272V235.5H276.2ZM276.2 234.2H272C271.4 234.2 270.8 234.8 270.8 235.5V261.3C270.8 262 271.3 262.6 272 262.6H287.9C288.5 262.6 289.1 262 289.1 261.3V256.8C289.1 256.1 288.6 255.5 287.9 255.5H277.4V235.5C277.4 234.8 276.9 234.2 276.2 234.2Z" fill="white"/>
<path d="M319.8 261.9C319.5 261.9 319.2 261.6 319.2 261.3V240.6H313.1C312.8 240.6 312.5 240.3 312.5 240V235.5C312.5 235.1 312.8 234.9 313.1 234.9H330.6C330.9 234.9 331.2 235.2 331.2 235.5V240C331.2 240.3 330.9 240.6 330.6 240.6H324.5V261.3C324.5 261.7 324.2 261.9 323.9 261.9H319.7H319.8Z" fill="#211915"/>
<path d="M330.7 235.5V240H324V261.3H319.8V240H313.1V235.5H330.6M330.7 234.2H313.2C312.6 234.2 312 234.8 312 235.5V240C312 240.7 312.5 241.3 313.2 241.3H318.7V261.3C318.7 262 319.2 262.6 319.9 262.6H324.1C324.7 262.6 325.3 262 325.3 261.3V241.3H330.8C331.4 241.3 332 240.7 332 240V235.5C332 234.8 331.5 234.2 330.8 234.2H330.7Z" fill="white"/>
<path d="M134.4 261.9C134.1 261.9 133.8 261.6 133.8 261.3V235.5C133.8 235.1 134.1 234.9 134.4 234.9H151.9C152.2 234.9 152.5 235.2 152.5 235.5V240C152.5 240.3 152.2 240.6 151.9 240.6H139.2V244.9H151.9C152.2 244.9 152.5 245.2 152.5 245.5V250C152.5 250.4 152.2 250.6 151.9 250.6H139.2V261.1C139.2 261.5 138.9 261.7 138.6 261.7H134.4V261.9Z" fill="#211915"/>
<path d="M151.9 235.5V240H138.6V245.6H151.9V250.1H138.6V261.3H134.4V235.5H151.9ZM151.9 234.2H134.4C133.8 234.2 133.2 234.8 133.2 235.5V261.3C133.2 262 133.7 262.6 134.4 262.6H138.6C139.2 262.6 139.8 262 139.8 261.3V251.4H152C152.6 251.4 153.2 250.8 153.2 250.1V245.6C153.2 244.9 152.7 244.3 152 244.3H139.8V241.2H152C152.6 241.2 153.2 240.6 153.2 239.9V235.4C153.2 234.7 152.7 234.1 152 234.1L151.9 234.2Z" fill="white"/>
<path d="M194.201 262.4C194.201 262.4 194.101 262.4 194.001 262.4C193.901 262.4 193.701 262.2 193.701 262.1L189.901 253.5H180.301L176.501 262.1C176.501 262.3 176.301 262.4 176.201 262.4C176.201 262.4 176.101 262.4 176.001 262.4C176.001 262.4 175.801 262.4 175.701 262.4L171.901 260.4C171.601 260.2 171.501 259.9 171.601 259.5L183.001 233.6C183.001 233.4 183.301 233.3 183.501 233.3H185.001H186.501C186.701 233.3 186.901 233.4 187.001 233.6L198.401 259.5C198.501 259.8 198.401 260.2 198.101 260.4L194.301 262.4C194.301 262.4 194.101 262.4 194.001 262.4H194.201ZM187.401 247.9L185.001 242.5L182.601 247.9H187.401Z" fill="#211915"/>
<path d="M185.001 233.9H186.501L192.901 248.5L193.901 250.9L197.801 259.8L194.001 261.8L190.001 252.8H179.601L175.601 261.8L171.801 259.8L176.201 249.8L176.801 248.5L183.301 233.9H184.801M181.701 248.5H188.301L185.001 241L181.701 248.5ZM185.001 232.6H183.501C183.101 232.6 182.601 232.9 182.501 233.3L176.001 247.9L175.401 249.2L171.001 259.2C170.701 259.8 171.001 260.6 171.501 260.9L175.301 262.9C175.501 262.9 175.601 263 175.801 263C176.001 263 176.101 263 176.201 263C176.501 262.9 176.701 262.7 176.901 262.4L180.601 254.1H189.501L193.101 262.4C193.201 262.7 193.501 262.9 193.801 263C193.901 263 194.101 263 194.201 263C194.301 263 194.501 263 194.701 262.9L198.501 260.9C199.101 260.6 199.301 259.8 199.101 259.2L195.201 250.3L194.201 247.9L187.801 233.3C187.601 232.9 187.201 232.6 186.701 232.6H185.201H185.001ZM183.601 247.2L185.101 243.9L186.501 247.2H183.601Z" fill="white"/>
<path d="M154.9 261.4C154.6 261.4 154.3 261.1 154.3 260.8V256.3C154.3 255.9 154.6 255.7 154.9 255.7H159C159.3 255.7 159.6 256 159.6 256.3V260.8C159.6 261.2 159.3 261.4 159 261.4H154.9Z" fill="#211915"/>
<path d="M159 256.3V260.8H154.9V256.3H159ZM159 255H154.9C154.2 255 153.7 255.6 153.7 256.3V260.8C153.7 261.5 154.2 262.1 154.9 262.1H159C159.6 262.1 160.2 261.5 160.2 260.8V256.3C160.2 255.6 159.7 255 159 255Z" fill="white"/>
<path d="M220.8 261.4C220.5 261.4 220.2 261.1 220.2 260.8V256.3C220.2 255.9 220.5 255.7 220.8 255.7H224.9C225.2 255.7 225.5 256 225.5 256.3V260.8C225.5 261.2 225.2 261.4 224.9 261.4H220.8Z" fill="#211915"/>
<path d="M224.901 256.3V260.8H220.801V256.3H224.901ZM224.901 255H220.801C220.201 255 219.601 255.6 219.601 256.3V260.8C219.601 261.5 220.101 262.1 220.801 262.1H224.901C225.501 262.1 226.101 261.5 226.101 260.8V256.3C226.101 255.6 225.601 255 224.901 255Z" fill="white"/>
<path d="M127.1 261.4C126.8 261.4 126.5 261.1 126.5 260.8V256.3C126.5 255.9 126.8 255.7 127.1 255.7H131.2C131.5 255.7 131.8 256 131.8 256.3V260.8C131.8 261.2 131.5 261.4 131.2 261.4H127.1Z" fill="#211915"/>
<path d="M131.2 256.3V260.8H127.1V256.3H131.2ZM131.2 255H127.1C126.5 255 125.9 255.6 125.9 256.3V260.8C125.9 261.5 126.4 262.1 127.1 262.1H131.2C131.8 262.1 132.4 261.5 132.4 260.8V256.3C132.4 255.6 131.9 255 131.2 255Z" fill="white"/>
<path d="M109.4 261.2C109.4 261.2 109.4 261.2 109.3 261.2V260.6C109.4 260.6 109.3 261.2 109.3 261.2C109.3 261.2 109.1 261.2 109 261.2C107.7 260.8 100.7 258.4 100.7 247.3C100.7 236.2 109 234.9 109.4 234.9C109.8 234.9 109.4 234.9 109.5 234.9H122.6C122.9 234.9 123.2 235.2 123.2 235.5V240C123.2 240.3 122.9 240.6 122.6 240.6H109.4C108.8 241 106 243 106 248C106 253 108.7 254.9 109.4 255.4H122.6C122.9 255.4 123.2 255.7 123.2 256V260.5C123.2 260.8 122.9 261.1 122.6 261.1H109.4C109.4 261.1 109.4 261.1 109.3 261.1L109.4 261.2Z" fill="#211915"/>
<path d="M109.4 235.5H122.7V240H109.3C109.1 240 105.5 242.1 105.5 248C105.5 253.9 109 255.8 109.3 256H122.6V260.5H109.3C108.3 260.2 101.4 258.2 101.4 247.2C101.4 236.2 109.3 235.4 109.5 235.4M109.4 234.2C106.2 234.2 100.2 236.9 100.2 247.3C100.2 257.7 107.3 261.4 108.9 261.8C109 261.8 109.2 261.9 109.3 261.9H122.7C123.3 261.9 123.9 261.3 123.9 260.6V256.1C123.9 255.4 123.4 254.8 122.7 254.8H109.7C108.9 254.3 106.7 252.4 106.7 248.1C106.7 243.8 108.9 241.8 109.7 241.3H122.8C123.4 241.3 124 240.7 124 240V235.5C124 234.8 123.5 234.2 122.8 234.2H109.7C109.7 234.2 109.6 234.2 109.5 234.2H109.4Z" fill="white"/>
<path d="M255.2 261.2C255.2 261.2 255.2 261.2 255.1 261.2H246.2C246.2 261.2 246.2 261.2 246.1 261.2C246 261.2 246.1 261.2 246 261.2C246 261.2 245.8 261.2 245.7 261.2C244.4 260.8 237.4 258.5 237.4 247.3C237.4 236.1 245.7 234.9 246.1 234.9C246.5 234.9 246.2 234.9 246.2 234.9H259.3C259.6 234.9 259.9 235.2 259.9 235.5V240C259.9 240.3 259.6 240.6 259.3 240.6H246.1C245.5 241 242.7 243 242.7 248C242.7 253 245.4 254.9 246.1 255.4H254.5V250.8H248.6C248.3 250.8 248 250.5 248 250.2V245.7C248 245.3 248.3 245.1 248.6 245.1H259.2C259.5 245.1 259.8 245.4 259.8 245.7V260.6C259.8 260.9 259.5 261.2 259.2 261.2H255H255.2Z" fill="#211915"/>
<path d="M246.1 235.5H259.4V240H246C245.8 240 242.2 242.1 242.2 248C242.2 253.9 245.7 255.8 246.1 256H255.3V250.2H248.8V245.7H259.4V260.6H255.2H246.1C245.1 260.3 238.2 258.3 238.2 247.3C238.2 236.3 246.1 235.5 246.3 235.5M246.1 234.2C242.9 234.2 236.9 236.9 236.9 247.3C236.9 257.7 244 261.4 245.6 261.8C245.7 261.8 245.9 261.9 246 261.9H255.1C255.1 261.9 255.1 261.9 255.2 261.9H259.4C260 261.9 260.6 261.3 260.6 260.6V245.7C260.6 245 260.1 244.4 259.4 244.4H248.8C248.2 244.4 247.6 245 247.6 245.7V250.2C247.6 250.9 248.1 251.5 248.8 251.5H254.1V254.8H246.4C245.6 254.3 243.4 252.4 243.4 248.1C243.4 243.8 245.6 241.8 246.4 241.3H259.5C260.1 241.3 260.7 240.7 260.7 240V235.5C260.7 234.8 260.2 234.2 259.5 234.2H246.4C246.4 234.2 246.3 234.2 246.2 234.2H246.1Z" fill="white"/>
<path d="M291.7 261.9C291.4 261.9 291.1 261.6 291.1 261.3V235.5C291.1 235.1 291.4 234.9 291.7 234.9H309.2C309.5 234.9 309.8 235.2 309.8 235.5V240C309.8 240.3 309.5 240.6 309.2 240.6H296.5V244.9H309.2C309.5 244.9 309.8 245.2 309.8 245.5V250C309.8 250.4 309.5 250.6 309.2 250.6H296.5V256H309.2C309.5 256 309.8 256.3 309.8 256.6V261.1C309.8 261.5 309.5 261.7 309.2 261.7H291.8L291.7 261.9Z" fill="#211915"/>
<path d="M309.2 235.5V240H295.9V245.6H309.2V250.1H295.9V256.8H309.2V261.3H291.8V235.5H309.3M309.2 234.2H291.7C291.1 234.2 290.5 234.8 290.5 235.5V261.3C290.5 262 291 262.6 291.7 262.6H309.1C309.7 262.6 310.3 262 310.3 261.3V256.8C310.3 256.1 309.8 255.5 309.1 255.5H297V251.3H309.2C309.8 251.3 310.4 250.7 310.4 250V245.5C310.4 244.8 309.9 244.2 309.2 244.2H297V241.1H309.2C309.8 241.1 310.4 240.5 310.4 239.8V235.3C310.4 234.6 309.9 234 309.2 234V234.2Z" fill="white"/>
<path d="M230.6 175.8H228.6V177H230.6V175.8Z" fill="white" stroke="#727176" stroke-width="0.3" stroke-miterlimit="10"/>
<path d="M231.1 177H228.6V178.2H231.1V177Z" fill="white" stroke="#727176" stroke-width="0.3" stroke-miterlimit="10"/>
<path d="M231.1 178.2H228.6V179.4H231.1V178.2Z" fill="white" stroke="#727176" stroke-width="0.3" stroke-miterlimit="10"/>
<path d="M230.6 179.4H228.6V180.6H230.6V179.4Z" fill="white" stroke="#727176" stroke-width="0.3" stroke-miterlimit="10"/>
<path d="M230.6 180.6H228.6V181.8H230.6V180.6Z" fill="white" stroke="#727176" stroke-width="0.3" stroke-miterlimit="10"/>
<path d="M231.3 181.7H228.6V182.9H231.3V181.7Z" fill="white" stroke="#727176" stroke-width="0.3" stroke-miterlimit="10"/>
<path d="M231.3 182.9H228.6V184.1H231.3V182.9Z" fill="white" stroke="#727176" stroke-width="0.3" stroke-miterlimit="10"/>
<path d="M231.3 184.1H228.6V185.3H231.3V184.1Z" fill="white" stroke="#727176" stroke-width="0.3" stroke-miterlimit="10"/>
<path d="M230.6 185.3H228.6V186.5H230.6V185.3Z" fill="white" stroke="#727176" stroke-width="0.3" stroke-miterlimit="10"/>
<path d="M218 175.8H216V177H218V175.8Z" fill="white" stroke="#727176" stroke-width="0.3" stroke-miterlimit="10"/>
<path d="M228.5 174.6H218.1V175.8H228.5V174.6Z" fill="white" stroke="#727176" stroke-width="0.3" stroke-miterlimit="10"/>
<path d="M218 177H215.5V178.2H218V177Z" fill="white" stroke="#727176" stroke-width="0.3" stroke-miterlimit="10"/>
<path d="M218 178.2H215.5V179.4H218V178.2Z" fill="white" stroke="#727176" stroke-width="0.3" stroke-miterlimit="10"/>
<path d="M218 179.4H216V180.6H218V179.4Z" fill="white" stroke="#727176" stroke-width="0.3" stroke-miterlimit="10"/>
<path d="M218 180.6H216V181.8H218V180.6Z" fill="white" stroke="#727176" stroke-width="0.3" stroke-miterlimit="10"/>
<path d="M218 181.7H215.3V182.9H218V181.7Z" fill="white" stroke="#727176" stroke-width="0.3" stroke-miterlimit="10"/>
<path d="M218 182.9H215.3V184.1H218V182.9Z" fill="white" stroke="#727176" stroke-width="0.3" stroke-miterlimit="10"/>
<path d="M218 184.1H215.3V185.3H218V184.1Z" fill="white" stroke="#727176" stroke-width="0.3" stroke-miterlimit="10"/>
<path d="M218 185.3H216V186.5H218V185.3Z" fill="white" stroke="#727176" stroke-width="0.3" stroke-miterlimit="10"/>
</svg>
